<?xml version="1.0" encoding="UTF-8"?>
<svg width="250px" height="250px" viewBox="0 0 250 250" version="1.1" xmlns="http://www.w3.org/2000/svg" xmlns:xlink="http://www.w3.org/1999/xlink">
    <!-- Generator: Sketch 44.1 (41455) - http://www.bohemiancoding.com/sketch -->
    <title>Add Your Own Image</title>
    <desc>Created with Sketch.</desc>
    <defs></defs>
    <g id="7.1---PDP---Experimental" stroke="none" stroke-width="1" fill="none" fill-rule="evenodd">
        <g id="PDP-Experiment---Gallery-Top---How-You-Wear-It-Content-Module-V2" transform="translate(-855.000000, -1320.000000)">
            <g id="Social" transform="translate(295.000000, 1262.000000)">
                <g id="User-Gallery" transform="translate(0.000000, 58.000000)">
                    <g id="Add-Your-Own-Image" transform="translate(560.000000, 0.000000)">
                        <g id="Social-User-Image">
                            <rect id="Rectangle-7" fill="#F8F8F8" x="0" y="0" width="250" height="250"></rect>
                            <g id="Content" transform="translate(72.000000, 89.000000)">
                                <text id="Add-your-own-look" font-family="Interstate-Regular, Interstate" font-size="12" font-weight="normal" letter-spacing="0.1714286" text-decoration="underline" fill="#CCCCCC">
                                    <tspan x="0" y="71">Add your own look</tspan>
                                </text>
                                <g id="Camera-Icon" transform="translate(22.000000, 0.000000)" fill-rule="nonzero" fill="#D8D8D8">
                                    <path d="M22.8571298,0 L17.8571327,8.57142367 L6.42856776,8.57142367 C2.86714122,8.57142367 0,11.4385649 0,14.9999914 L0,43.5714322 C0,47.1328588 2.86714122,50 6.42856776,50 L56.4285392,50 C59.9899657,50 62.8571069,47.1328588 62.8571069,43.5714322 L62.8571069,14.9999914 C62.8571069,11.4385649 59.9899657,8.57142367 56.4285392,8.57142367 L44.9999743,8.57142367 L39.9999771,0 L22.8571298,0 Z M31.4285535,12.8571355 C40.4849769,12.8571355 47.8571155,20.229417 47.8571155,29.2857261 C47.8571155,38.3420067 40.4849769,45.7142882 31.4285535,45.7142882 C22.3722729,45.7142882 14.9999914,38.3420067 14.9999914,29.2857261 C14.9999914,20.229417 22.3722729,12.8571355 31.4285535,12.8571355 Z M53.571398,14.9999914 C54.7548259,14.9999914 55.7142539,15.9594195 55.7142539,17.1428473 C55.7142539,18.3262752 54.7548259,19.2857033 53.571398,19.2857033 C52.3879701,19.2857033 51.428542,18.3262752 51.428542,17.1428473 C51.428542,15.9594195 52.3879701,14.9999914 53.571398,14.9999914 Z M31.4285535,15.7142767 C23.9164149,15.7142767 17.8571327,21.7734876 17.8571327,29.2857261 C17.8571327,36.7979361 23.9164149,42.8571469 31.4285535,42.8571469 C38.9408349,42.8571469 44.9999743,36.7979361 44.9999743,29.2857261 C44.9999743,21.7734876 38.9408349,15.7142767 31.4285535,15.7142767 Z M31.4285535,21.4285592 C35.7679081,21.4285592 39.2856918,24.9463715 39.2856918,29.2857261 C39.2856918,33.6250808 35.7679081,37.1428645 31.4285535,37.1428645 C27.0891988,37.1428645 23.5714151,33.6250808 23.5714151,29.2857261 C23.5714151,24.9463715 27.0891988,21.4285592 31.4285535,21.4285592 Z" id="Shape"></path>
                                </g>
                            </g>
                        </g>
                    </g>
                </g>
            </g>
        </g>
    </g>
</svg>