<?xml version="1.0" encoding="UTF-8"?>
<svg width="802px" height="70px" viewBox="0 0 802 70" version="1.1" xmlns="http://www.w3.org/2000/svg" xmlns:xlink="http://www.w3.org/1999/xlink">
    <!-- Generator: Sketch 44.1 (41455) - http://www.bohemiancoding.com/sketch -->
    <title>My Topshop Wardrobe</title>
    <desc>Created with Sketch.</desc>
    <defs>
        <rect id="path-1" x="0" y="0" width="802" height="70"></rect>
        <polygon id="path-2" points="0.19899177 12.2788066 10.5426543 12.2788066 10.5426543 0.0159624486 0.19899177 0.0159624486"></polygon>
        <polygon id="path-4" points="11.2358025 0.161604938 0.254506173 0.161604938 0.254506173 12.3246739 11.2358025 12.3246739"></polygon>
    </defs>
    <g id="7.1---PDP---Experimental" stroke="none" stroke-width="1" fill="none" fill-rule="evenodd">
        <g id="PDP-Experiment---Gallery-Top---How-You-Wear-It-Content-Module" transform="translate(-299.000000, -1690.000000)">
            <g id="My-Topshop-Wardrobe" transform="translate(299.000000, 1690.000000)">
                <g id="Background">
                    <use fill="#F8F8F8" fill-rule="evenodd" xlink:href="#path-1"></use>
                    <rect stroke="#A6D0C9" stroke-width="1" x="0.5" y="0.5" width="801" height="69"></rect>
                </g>
                <g id="Content" transform="translate(161.000000, 24.000000)">
                    <g id="Right-Column" transform="translate(243.000000, 0.028986)" fill-rule="nonzero">
                        <g id="Arrow" transform="translate(224.000000, 5.434783)" fill="#2E2E2E">
                            <g id="Page-1">
                                <polygon id="Fill-1" points="0 5.12625859 11.9835625 5.12625859 11.9835625 3.68461098 0 3.68461098"></polygon>
                                <polygon id="Fill-2" points="9.05506875 -9.61098398e-05 9.05506875 2.01292448 11.10785 4.40557895 9.05506875 6.79823341 9.05506875 8.81125401 12.835225 4.40557895"></polygon>
                            </g>
                        </g>
                        <path d="M144.788,7.24869565 L144.788,6.14086957 L140.204,6.14086957 L140.204,7.24869565 L141.908,7.24869565 L141.908,14.5652174 L143.084,14.5652174 L143.084,7.24869565 L144.788,7.24869565 Z M151.369143,14.5652174 L152.605143,14.5652174 L149.341143,6.14086957 L148.105143,6.14086957 L144.985143,14.5652174 L146.149143,14.5652174 L147.181143,11.7895652 L150.301143,11.7895652 L151.369143,14.5652174 Z M148.717143,7.6626087 L149.905143,10.7669565 L147.553143,10.7669565 L148.717143,7.6626087 Z M155.262286,6.14086957 L154.086286,6.14086957 L154.086286,14.5652174 L155.262286,14.5652174 L155.262286,10.7182609 L158.382286,14.5652174 L159.786286,14.5652174 L156.294286,10.1582609 L159.678286,6.14086957 L158.274286,6.14086957 L155.262286,9.78086957 L155.262286,6.14086957 Z M164.891429,14.5652174 L164.891429,13.4573913 L162.419429,13.4573913 L162.419429,10.7791304 L164.795429,10.7791304 L164.795429,9.68347826 L162.419429,9.68347826 L162.419429,7.24869565 L164.855429,7.24869565 L164.855429,6.14086957 L161.243429,6.14086957 L161.243429,14.5652174 L164.891429,14.5652174 Z M173.661714,7.24869565 L173.661714,6.14086957 L169.077714,6.14086957 L169.077714,7.24869565 L170.781714,7.24869565 L170.781714,14.5652174 L171.957714,14.5652174 L171.957714,7.24869565 L173.661714,7.24869565 Z M181.694857,6.14086957 L180.518857,6.14086957 L180.518857,9.63478261 L176.546857,9.63478261 L176.546857,6.14086957 L175.370857,6.14086957 L175.370857,14.5652174 L176.546857,14.5652174 L176.546857,10.7669565 L180.518857,10.7669565 L180.518857,14.5652174 L181.694857,14.5652174 L181.694857,6.14086957 Z M187.496,14.5652174 L187.496,13.4573913 L185.024,13.4573913 L185.024,10.7791304 L187.4,10.7791304 L187.4,9.68347826 L185.024,9.68347826 L185.024,7.24869565 L187.46,7.24869565 L187.46,6.14086957 L183.848,6.14086957 L183.848,14.5652174 L187.496,14.5652174 Z M191.790286,10.3530435 C191.790286,12.8973913 193.530286,14.7234783 196.038286,14.7234783 C196.986286,14.7234783 197.838286,14.4434783 198.522286,13.9565217 L199.314286,14.6869565 L200.070286,13.8226087 L199.350286,13.1652174 C199.950286,12.4104348 200.298286,11.4365217 200.298286,10.3408696 C200.298286,7.83304348 198.546286,5.97043478 196.026286,5.97043478 C193.578286,5.97043478 191.790286,7.82086957 191.790286,10.3530435 L191.790286,10.3530435 Z M193.014286,10.3530435 C193.014286,8.44173913 194.214286,7.06608696 196.038286,7.06608696 C197.850286,7.06608696 199.074286,8.44173913 199.074286,10.3530435 C199.074286,11.1443478 198.870286,11.8504348 198.498286,12.386087 L197.646286,11.6069565 L196.902286,12.4591304 L197.682286,13.1773913 C197.226286,13.4695652 196.662286,13.6278261 196.038286,13.6278261 C194.250286,13.6278261 193.014286,12.2765217 193.014286,10.3530435 L193.014286,10.3530435 Z M205.211429,14.7234783 C207.227429,14.7234783 208.355429,13.3234783 208.355429,11.3878261 L208.355429,6.14086957 L207.191429,6.14086957 L207.191429,11.3756522 C207.191429,12.6904348 206.519429,13.6156522 205.223429,13.6156522 C203.843429,13.6156522 203.243429,12.7269565 203.243429,11.3878261 L203.243429,6.14086957 L202.067429,6.14086957 L202.067429,11.3878261 C202.067429,13.3965217 203.075429,14.7234783 205.211429,14.7234783 L205.211429,14.7234783 Z M211.636572,6.14086957 L210.460572,6.14086957 L210.460572,14.5652174 L211.636572,14.5652174 L211.636572,6.14086957 Z M219.861714,14.5652174 L219.861714,13.4695652 L215.049714,13.4695652 L219.849714,7.02956522 L219.849714,6.14086957 L213.549714,6.14086957 L213.549714,7.23652174 L218.229714,7.23652174 L213.477714,13.6765217 L213.477714,14.5652174 L219.861714,14.5652174 Z" id="TAKE-THE-QUIZ" fill="#232323"></path>
                        <path d="M6.09,3.23623188 C6.09,1.76521739 5.13,1.01449275 3.84,1.01449275 L0.91,1.01449275 L0.91,8.11594203 L1.94,8.11594203 L1.94,5.46811594 L3.77,5.46811594 C5.13,5.46811594 6.09,4.69710145 6.09,3.23623188 L6.09,3.23623188 Z M5.02,3.23623188 C5.02,3.99710145 4.62,4.46376812 3.82,4.46376812 L1.94,4.46376812 L1.94,2.01884058 L3.82,2.01884058 C4.55,2.01884058 5.02,2.45507246 5.02,3.23623188 L5.02,3.23623188 Z M11.95,5.34637681 C11.95,3.9057971 11.23,2.67826087 9.74,2.67826087 C8.38,2.67826087 7.44,3.65217391 7.44,5.45797101 C7.44,7.22318841 8.48,8.22753623 9.71,8.22753623 C10.51,8.22753623 11.06,7.97391304 11.52,7.52753623 L10.91,6.85797101 C10.56,7.12173913 10.21,7.28405797 9.77,7.28405797 C9.13,7.28405797 8.56,6.84782609 8.45,5.82318841 L11.92,5.82318841 C11.93,5.7115942 11.95,5.53913043 11.95,5.34637681 L11.95,5.34637681 Z M10.91,4.96086957 L8.47,4.96086957 C8.56,4.10869565 8.98,3.62173913 9.67,3.62173913 C10.52,3.62173913 10.86,4.23043478 10.91,4.96086957 L10.91,4.96086957 Z M16.75,2.90144928 C16.54,2.75942029 16.28,2.67826087 15.86,2.67826087 C15.34,2.67826087 14.9,2.94202899 14.66,3.29710145 L14.66,2.78985507 L13.63,2.78985507 L13.63,8.11594203 L14.66,8.11594203 L14.66,5.07246377 C14.66,4.16956522 15.04,3.70289855 15.69,3.70289855 C16.03,3.70289855 16.26,3.77391304 16.48,3.89565217 L16.75,2.90144928 Z M21.88,6.65507246 C21.88,5.65072464 21.28,5.32608696 20.11,4.86956522 C19.32,4.55507246 19.14,4.36231884 19.14,4.09855072 C19.14,3.81449275 19.36,3.6115942 19.86,3.6115942 C20.36,3.6115942 20.79,3.76376812 21.22,4.06811594 L21.67,3.26666667 C21.2,2.92173913 20.55,2.67826087 19.89,2.67826087 C18.84,2.67826087 18.1,3.17536232 18.1,4.12898551 C18.1,4.97101449 18.51,5.35652174 19.64,5.80289855 C20.4,6.09710145 20.86,6.28985507 20.86,6.69565217 C20.86,7.07101449 20.55,7.28405797 19.9,7.28405797 C19.41,7.28405797 18.86,7.10144928 18.37,6.75652174 L17.9,7.54782609 C18.43,7.94347826 19.2,8.22753623 19.91,8.22753623 C20.94,8.22753623 21.88,7.83188406 21.88,6.65507246 L21.88,6.65507246 Z M28.03,5.42753623 C28.03,3.76376812 27.03,2.67826087 25.69,2.67826087 C24.37,2.67826087 23.35,3.71304348 23.35,5.45797101 C23.35,7.12173913 24.34,8.22753623 25.66,8.22753623 C27.01,8.22753623 28.03,7.19275362 28.03,5.42753623 L28.03,5.42753623 Z M26.99,5.45797101 C26.99,6.43188406 26.48,7.23333333 25.7,7.23333333 C24.92,7.23333333 24.39,6.5942029 24.39,5.42753623 C24.39,4.37246377 24.87,3.67246377 25.65,3.67246377 C26.48,3.67246377 26.99,4.37246377 26.99,5.45797101 L26.99,5.45797101 Z M33.92,8.11594203 L33.92,5.06231884 C33.92,3.48985507 33.27,2.67826087 32.05,2.67826087 C31.51,2.67826087 30.99,2.9115942 30.73,3.29710145 L30.73,2.78985507 L29.7,2.78985507 L29.7,8.11594203 L30.73,8.11594203 L30.73,5.00144928 C30.73,4.13913043 31.12,3.64202899 31.81,3.64202899 C32.49,3.64202899 32.89,4.02753623 32.89,5.10289855 L32.89,8.11594203 L33.92,8.11594203 Z M39.82,8.11594203 L39.82,4.46376812 C39.82,3.25652174 39.02,2.67826087 37.85,2.67826087 C37.11,2.67826087 36.55,2.84057971 36.05,3.15507246 L36.45,3.94637681 C36.86,3.71304348 37.28,3.6115942 37.82,3.6115942 C38.46,3.6115942 38.81,3.93623188 38.81,4.51449275 L38.81,4.91014493 C38.52,4.77826087 38.13,4.70724638 37.64,4.70724638 C36.45,4.70724638 35.55,5.24492754 35.55,6.43188406 C35.55,7.74057971 36.52,8.22753623 37.37,8.22753623 C37.94,8.22753623 38.45,7.95362319 38.81,7.5884058 L38.81,8.11594203 L39.82,8.11594203 Z M38.81,6.60434783 C38.57,6.93913043 38.09,7.28405797 37.54,7.28405797 C36.86,7.28405797 36.53,6.92898551 36.53,6.40144928 C36.53,5.91449275 36.95,5.61014493 37.61,5.61014493 C38.17,5.61014493 38.53,5.70144928 38.81,5.84347826 L38.81,6.60434783 Z M42.78,8.11594203 L42.78,0.720289855 L41.75,1.26811594 L41.75,8.11594203 L42.78,8.11594203 Z M45.98,1.43043478 C45.98,1.05507246 45.68,0.750724638 45.32,0.750724638 C44.95,0.750724638 44.65,1.05507246 44.65,1.43043478 C44.65,1.79565217 44.95,2.1 45.32,2.1 C45.68,2.1 45.98,1.79565217 45.98,1.43043478 L45.98,1.43043478 Z M45.83,8.11594203 L45.83,2.78985507 L44.8,2.78985507 L44.8,8.11594203 L45.83,8.11594203 Z M51.47,6.65507246 C51.47,5.65072464 50.87,5.32608696 49.7,4.86956522 C48.91,4.55507246 48.73,4.36231884 48.73,4.09855072 C48.73,3.81449275 48.95,3.6115942 49.45,3.6115942 C49.95,3.6115942 50.38,3.76376812 50.81,4.06811594 L51.26,3.26666667 C50.79,2.92173913 50.14,2.67826087 49.48,2.67826087 C48.43,2.67826087 47.69,3.17536232 47.69,4.12898551 C47.69,4.97101449 48.1,5.35652174 49.23,5.80289855 C49.99,6.09710145 50.45,6.28985507 50.45,6.69565217 C50.45,7.07101449 50.14,7.28405797 49.49,7.28405797 C49,7.28405797 48.45,7.10144928 47.96,6.75652174 L47.49,7.54782609 C48.02,7.94347826 48.79,8.22753623 49.5,8.22753623 C50.53,8.22753623 51.47,7.83188406 51.47,6.65507246 L51.47,6.65507246 Z M57.45,5.34637681 C57.45,3.9057971 56.73,2.67826087 55.24,2.67826087 C53.88,2.67826087 52.94,3.65217391 52.94,5.45797101 C52.94,7.22318841 53.98,8.22753623 55.21,8.22753623 C56.01,8.22753623 56.56,7.97391304 57.02,7.52753623 L56.41,6.85797101 C56.06,7.12173913 55.71,7.28405797 55.27,7.28405797 C54.63,7.28405797 54.06,6.84782609 53.95,5.82318841 L57.42,5.82318841 C57.43,5.7115942 57.45,5.53913043 57.45,5.34637681 L57.45,5.34637681 Z M56.41,4.96086957 L53.97,4.96086957 C54.06,4.10869565 54.48,3.62173913 55.17,3.62173913 C56.02,3.62173913 56.36,4.23043478 56.41,4.96086957 L56.41,4.96086957 Z M63.31,8.11594203 L63.31,0.720289855 L62.29,1.25797101 L62.29,3.28695652 C62,2.96231884 61.5,2.67826087 60.97,2.67826087 C59.88,2.67826087 58.9,3.54057971 58.9,5.36666667 C58.9,7.39565217 59.79,8.22753623 60.92,8.22753623 C61.47,8.22753623 61.91,7.96376812 62.29,7.60869565 L62.29,8.11594203 L63.31,8.11594203 Z M62.3,6.58405797 C62.03,6.92898551 61.6,7.26376812 61.11,7.26376812 C60.35,7.26376812 59.93,6.67536232 59.93,5.33623188 C59.93,4.21014493 60.33,3.64202899 61.07,3.64202899 C61.59,3.64202899 62.07,4.02753623 62.3,4.34202899 L62.3,6.58405797 Z M72.59,5.34637681 C72.59,3.9057971 71.87,2.67826087 70.38,2.67826087 C69.02,2.67826087 68.08,3.65217391 68.08,5.45797101 C68.08,7.22318841 69.12,8.22753623 70.35,8.22753623 C71.15,8.22753623 71.7,7.97391304 72.16,7.52753623 L71.55,6.85797101 C71.2,7.12173913 70.85,7.28405797 70.41,7.28405797 C69.77,7.28405797 69.2,6.84782609 69.09,5.82318841 L72.56,5.82318841 C72.57,5.7115942 72.59,5.53913043 72.59,5.34637681 L72.59,5.34637681 Z M71.55,4.96086957 L69.11,4.96086957 C69.2,4.10869565 69.62,3.62173913 70.31,3.62173913 C71.16,3.62173913 71.5,4.23043478 71.55,4.96086957 L71.55,4.96086957 Z M78.45,8.11594203 L78.45,0.720289855 L77.43,1.25797101 L77.43,3.28695652 C77.14,2.96231884 76.64,2.67826087 76.11,2.67826087 C75.02,2.67826087 74.04,3.54057971 74.04,5.36666667 C74.04,7.39565217 74.93,8.22753623 76.06,8.22753623 C76.61,8.22753623 77.05,7.96376812 77.43,7.60869565 L77.43,8.11594203 L78.45,8.11594203 Z M77.44,6.58405797 C77.17,6.92898551 76.74,7.26376812 76.25,7.26376812 C75.49,7.26376812 75.07,6.67536232 75.07,5.33623188 C75.07,4.21014493 75.47,3.64202899 76.21,3.64202899 C76.73,3.64202899 77.21,4.02753623 77.44,4.34202899 L77.44,6.58405797 Z M81.6,1.43043478 C81.6,1.05507246 81.3,0.750724638 80.94,0.750724638 C80.57,0.750724638 80.27,1.05507246 80.27,1.43043478 C80.27,1.79565217 80.57,2.1 80.94,2.1 C81.3,2.1 81.6,1.79565217 81.6,1.43043478 L81.6,1.43043478 Z M81.45,8.11594203 L81.45,2.78985507 L80.42,2.78985507 L80.42,8.11594203 L81.45,8.11594203 Z M86.05,7.06086957 C85.86,7.17246377 85.56,7.27391304 85.29,7.27391304 C84.91,7.27391304 84.75,7.13188406 84.75,6.63478261 L84.75,3.74347826 L86.05,3.74347826 L86.05,2.78985507 L84.75,2.78985507 L84.75,0.720289855 L83.74,1.26811594 L83.74,2.78985507 L82.99,2.78985507 L82.99,3.74347826 L83.74,3.74347826 L83.74,6.8173913 C83.74,7.77101449 84.19,8.22753623 84.92,8.22753623 C85.33,8.22753623 85.68,8.12608696 85.93,7.98405797 L86.05,7.06086957 Z M91.52,6.65507246 C91.52,5.65072464 90.92,5.32608696 89.75,4.86956522 C88.96,4.55507246 88.78,4.36231884 88.78,4.09855072 C88.78,3.81449275 89,3.6115942 89.5,3.6115942 C90,3.6115942 90.43,3.76376812 90.86,4.06811594 L91.31,3.26666667 C90.84,2.92173913 90.19,2.67826087 89.53,2.67826087 C88.48,2.67826087 87.74,3.17536232 87.74,4.12898551 C87.74,4.97101449 88.15,5.35652174 89.28,5.80289855 C90.04,6.09710145 90.5,6.28985507 90.5,6.69565217 C90.5,7.07101449 90.19,7.28405797 89.54,7.28405797 C89.05,7.28405797 88.5,7.10144928 88.01,6.75652174 L87.54,7.54782609 C88.07,7.94347826 88.84,8.22753623 89.55,8.22753623 C90.58,8.22753623 91.52,7.83188406 91.52,6.65507246 L91.52,6.65507246 Z M3.39,18.2202899 C3.2,18.3318841 2.9,18.4333333 2.63,18.4333333 C2.25,18.4333333 2.09,18.2913043 2.09,17.7942029 L2.09,14.9028986 L3.39,14.9028986 L3.39,13.9492754 L2.09,13.9492754 L2.09,11.8797101 L1.08,12.4275362 L1.08,13.9492754 L0.33,13.9492754 L0.33,14.9028986 L1.08,14.9028986 L1.08,17.9768116 C1.08,18.9304348 1.53,19.3869565 2.26,19.3869565 C2.67,19.3869565 3.02,19.2855072 3.27,19.1434783 L3.39,18.2202899 Z M9.21,19.2753623 L9.21,15.6231884 C9.21,14.415942 8.41,13.8376812 7.24,13.8376812 C6.5,13.8376812 5.94,14 5.44,14.3144928 L5.84,15.1057971 C6.25,14.8724638 6.67,14.7710145 7.21,14.7710145 C7.85,14.7710145 8.2,15.0956522 8.2,15.673913 L8.2,16.0695652 C7.91,15.9376812 7.52,15.8666667 7.03,15.8666667 C5.84,15.8666667 4.94,16.4043478 4.94,17.5913043 C4.94,18.9 5.91,19.3869565 6.76,19.3869565 C7.33,19.3869565 7.84,19.1130435 8.2,18.7478261 L8.2,19.2753623 L9.21,19.2753623 Z M8.2,17.7637681 C7.96,18.0985507 7.48,18.4434783 6.93,18.4434783 C6.25,18.4434783 5.92,18.0884058 5.92,17.5608696 C5.92,17.073913 6.34,16.7695652 7,16.7695652 C7.56,16.7695652 7.92,16.8608696 8.2,17.0028986 L8.2,17.7637681 Z M12.32,12.5898551 C12.32,12.2144928 12.02,11.9101449 11.66,11.9101449 C11.29,11.9101449 10.99,12.2144928 10.99,12.5898551 C10.99,12.9550725 11.29,13.2594203 11.66,13.2594203 C12.02,13.2594203 12.32,12.9550725 12.32,12.5898551 L12.32,12.5898551 Z M12.17,19.2753623 L12.17,13.9492754 L11.14,13.9492754 L11.14,19.2753623 L12.17,19.2753623 Z M15.22,19.2753623 L15.22,11.8797101 L14.19,12.4275362 L14.19,19.2753623 L15.22,19.2753623 Z M21.62,16.5869565 C21.62,14.9231884 20.62,13.8376812 19.28,13.8376812 C17.96,13.8376812 16.94,14.8724638 16.94,16.6173913 C16.94,18.2811594 17.93,19.3869565 19.25,19.3869565 C20.6,19.3869565 21.62,18.3521739 21.62,16.5869565 L21.62,16.5869565 Z M20.58,16.6173913 C20.58,17.5913043 20.07,18.3927536 19.29,18.3927536 C18.51,18.3927536 17.98,17.7536232 17.98,16.5869565 C17.98,15.5318841 18.46,14.8318841 19.24,14.8318841 C20.07,14.8318841 20.58,15.5318841 20.58,16.6173913 L20.58,16.6173913 Z M26.41,14.0608696 C26.2,13.9188406 25.94,13.8376812 25.52,13.8376812 C25,13.8376812 24.56,14.1014493 24.32,14.4565217 L24.32,13.9492754 L23.29,13.9492754 L23.29,19.2753623 L24.32,19.2753623 L24.32,16.2318841 C24.32,15.3289855 24.7,14.8623188 25.35,14.8623188 C25.69,14.8623188 25.92,14.9333333 26.14,15.0550725 L26.41,14.0608696 Z M32.13,16.5057971 C32.13,15.0652174 31.41,13.8376812 29.92,13.8376812 C28.56,13.8376812 27.62,14.8115942 27.62,16.6173913 C27.62,18.3826087 28.66,19.3869565 29.89,19.3869565 C30.69,19.3869565 31.24,19.1333333 31.7,18.6869565 L31.09,18.0173913 C30.74,18.2811594 30.39,18.4434783 29.95,18.4434783 C29.31,18.4434783 28.74,18.0072464 28.63,16.9826087 L32.1,16.9826087 C32.11,16.8710145 32.13,16.6985507 32.13,16.5057971 L32.13,16.5057971 Z M31.09,16.1202899 L28.65,16.1202899 C28.74,15.2681159 29.16,14.7811594 29.85,14.7811594 C30.7,14.7811594 31.04,15.3898551 31.09,16.1202899 L31.09,16.1202899 Z M37.99,19.2753623 L37.99,11.8797101 L36.97,12.4173913 L36.97,14.4463768 C36.68,14.1217391 36.18,13.8376812 35.65,13.8376812 C34.56,13.8376812 33.58,14.7 33.58,16.526087 C33.58,18.5550725 34.47,19.3869565 35.6,19.3869565 C36.15,19.3869565 36.59,19.1231884 36.97,18.7681159 L36.97,19.2753623 L37.99,19.2753623 Z M36.98,17.7434783 C36.71,18.0884058 36.28,18.4231884 35.79,18.4231884 C35.03,18.4231884 34.61,17.8347826 34.61,16.4956522 C34.61,15.3695652 35.01,14.8014493 35.75,14.8014493 C36.27,14.8014493 36.75,15.1869565 36.98,15.5014493 L36.98,17.7434783 Z M45.64,18.2202899 C45.45,18.3318841 45.15,18.4333333 44.88,18.4333333 C44.5,18.4333333 44.34,18.2913043 44.34,17.7942029 L44.34,14.9028986 L45.64,14.9028986 L45.64,13.9492754 L44.34,13.9492754 L44.34,11.8797101 L43.33,12.4275362 L43.33,13.9492754 L42.58,13.9492754 L42.58,14.9028986 L43.33,14.9028986 L43.33,17.9768116 C43.33,18.9304348 43.78,19.3869565 44.51,19.3869565 C44.92,19.3869565 45.27,19.2855072 45.52,19.1434783 L45.64,18.2202899 Z M51.87,16.5869565 C51.87,14.9231884 50.87,13.8376812 49.53,13.8376812 C48.21,13.8376812 47.19,14.8724638 47.19,16.6173913 C47.19,18.2811594 48.18,19.3869565 49.5,19.3869565 C50.85,19.3869565 51.87,18.3521739 51.87,16.5869565 L51.87,16.5869565 Z M50.83,16.6173913 C50.83,17.5913043 50.32,18.3927536 49.54,18.3927536 C48.76,18.3927536 48.23,17.7536232 48.23,16.5869565 C48.23,15.5318841 48.71,14.8318841 49.49,14.8318841 C50.32,14.8318841 50.83,15.5318841 50.83,16.6173913 L50.83,16.6173913 Z M61.11,13.9492754 L60.02,13.9492754 L59.13,16.5768116 C58.97,17.0333333 58.75,17.7942029 58.66,18.1086957 C58.6,17.8144928 58.36,17.0231884 58.2,16.5565217 L57.34,13.9492754 L56.21,13.9492754 L58.14,19.173913 L57.38,21.1521739 L58.47,21.1521739 L61.11,13.9492754 Z M67.03,16.5869565 C67.03,14.9231884 66.03,13.8376812 64.69,13.8376812 C63.37,13.8376812 62.35,14.8724638 62.35,16.6173913 C62.35,18.2811594 63.34,19.3869565 64.66,19.3869565 C66.01,19.3869565 67.03,18.3521739 67.03,16.5869565 L67.03,16.5869565 Z M65.99,16.6173913 C65.99,17.5913043 65.48,18.3927536 64.7,18.3927536 C63.92,18.3927536 63.39,17.7536232 63.39,16.5869565 C63.39,15.5318841 63.87,14.8318841 64.65,14.8318841 C65.48,14.8318841 65.99,15.5318841 65.99,16.6173913 L65.99,16.6173913 Z M72.88,19.2753623 L72.88,13.9492754 L71.85,13.9492754 L71.85,17.0637681 C71.85,17.926087 71.46,18.4231884 70.77,18.4231884 C70.09,18.4231884 69.69,18.0376812 69.69,16.9623188 L69.69,13.9492754 L68.66,13.9492754 L68.66,17.0028986 C68.66,18.5753623 69.31,19.3869565 70.53,19.3869565 C71.07,19.3869565 71.59,19.1536232 71.85,18.7681159 L71.85,19.2753623 L72.88,19.2753623 Z M77.92,14.0608696 C77.71,13.9188406 77.45,13.8376812 77.03,13.8376812 C76.51,13.8376812 76.07,14.1014493 75.83,14.4565217 L75.83,13.9492754 L74.8,13.9492754 L74.8,19.2753623 L75.83,19.2753623 L75.83,16.2318841 C75.83,15.3289855 76.21,14.8623188 76.86,14.8623188 C77.2,14.8623188 77.43,14.9333333 77.65,15.0550725 L77.92,14.0608696 Z M86.15,17.8144928 C86.15,16.8101449 85.55,16.4855072 84.38,16.0289855 C83.59,15.7144928 83.41,15.5217391 83.41,15.257971 C83.41,14.973913 83.63,14.7710145 84.13,14.7710145 C84.63,14.7710145 85.06,14.9231884 85.49,15.2275362 L85.94,14.426087 C85.47,14.0811594 84.82,13.8376812 84.16,13.8376812 C83.11,13.8376812 82.37,14.3347826 82.37,15.2884058 C82.37,16.1304348 82.78,16.515942 83.91,16.9623188 C84.67,17.2565217 85.13,17.4492754 85.13,17.8550725 C85.13,18.2304348 84.82,18.4434783 84.17,18.4434783 C83.68,18.4434783 83.13,18.2608696 82.64,17.915942 L82.17,18.7072464 C82.7,19.1028986 83.47,19.3869565 84.18,19.3869565 C85.21,19.3869565 86.15,18.9913043 86.15,17.8144928 L86.15,17.8144928 Z M90.5,18.2202899 C90.31,18.3318841 90.01,18.4333333 89.74,18.4333333 C89.36,18.4333333 89.2,18.2913043 89.2,17.7942029 L89.2,14.9028986 L90.5,14.9028986 L90.5,13.9492754 L89.2,13.9492754 L89.2,11.8797101 L88.19,12.4275362 L88.19,13.9492754 L87.44,13.9492754 L87.44,14.9028986 L88.19,14.9028986 L88.19,17.9768116 C88.19,18.9304348 88.64,19.3869565 89.37,19.3869565 C89.78,19.3869565 90.13,19.2855072 90.38,19.1434783 L90.5,18.2202899 Z M96.77,13.9492754 L95.68,13.9492754 L94.79,16.5768116 C94.63,17.0333333 94.41,17.7942029 94.32,18.1086957 C94.26,17.8144928 94.02,17.0231884 93.86,16.5565217 L93,13.9492754 L91.87,13.9492754 L93.8,19.173913 L93.04,21.1521739 L94.13,21.1521739 L96.77,13.9492754 Z M99.34,19.2753623 L99.34,11.8797101 L98.31,12.4275362 L98.31,19.2753623 L99.34,19.2753623 Z M105.57,16.5057971 C105.57,15.0652174 104.85,13.8376812 103.36,13.8376812 C102,13.8376812 101.06,14.8115942 101.06,16.6173913 C101.06,18.3826087 102.1,19.3869565 103.33,19.3869565 C104.13,19.3869565 104.68,19.1333333 105.14,18.6869565 L104.53,18.0173913 C104.18,18.2811594 103.83,18.4434783 103.39,18.4434783 C102.75,18.4434783 102.18,18.0072464 102.07,16.9826087 L105.54,16.9826087 C105.55,16.8710145 105.57,16.6985507 105.57,16.5057971 L105.57,16.5057971 Z M104.53,16.1202899 L102.09,16.1202899 C102.18,15.2681159 102.6,14.7811594 103.29,14.7811594 C104.14,14.7811594 104.48,15.3898551 104.53,16.1202899 L104.53,16.1202899 Z M108.55,18.5855072 C108.55,18.1492754 108.19,17.773913 107.76,17.773913 C107.33,17.773913 106.97,18.1492754 106.97,18.5855072 C106.97,19.0217391 107.33,19.3869565 107.76,19.3869565 C108.19,19.3869565 108.55,19.0217391 108.55,18.5855072 L108.55,18.5855072 Z" id="Personalised-edits-t" fill="#232323"></path>
                    </g>
                    <g id="Left-Column" transform="translate(0.000000, 3.000000)">
                        <g id="Group-36" transform="translate(0.000000, 1.234486)">
                            <g id="Group-26" transform="translate(164.769547, 0.102881)">
                                <g id="Fill-24-Clipped">
                                    <mask id="mask-3" fill="white">
                                        <use xlink:href="#path-2"></use>
                                    </mask>
                                    <g id="path-1"></g>
                                </g>
                            </g>
                            <g id="Wardrobe" transform="translate(103.000000, -1.000000)" fill-rule="nonzero" fill="#000000">
                                <path d="M10.6447305,12.1954455 L8.34948354,12.1954455 L6.9065,6.08020368 C6.73878395,5.36803291 6.5710679,4.48316667 6.504607,4.0435062 C6.45378395,4.48316667 6.2860679,5.38427261 6.11835185,6.08020368 L4.6433107,12.1954455 L2.44697325,12.1954455 L3.90946498e-05,0.304807623 L2.44697325,0.304807623 L3.46929835,6.09881993 C3.5705535,6.67631993 3.70386626,7.55841357 3.75429835,8.05194238 C3.83913374,7.55841357 4.0228786,6.67631993 4.15619136,6.09881993 L5.53271399,0.304807623 L7.5773642,0.304807623 L8.96991564,6.09881993 C9.1032284,6.67631993 9.28697325,7.55841357 9.37180864,8.05194238 C9.42224074,7.55841357 9.5555535,6.65770368 9.65680864,6.09881993 L10.6791337,0.304807623 L13.0940103,0.304807623 L10.6447305,12.1954455 Z" id="Fill-14"></path>
                                <path d="M19.6214486,5.13049745 C19.3872716,4.43456638 19.1527037,3.72001906 19.0354198,3.27758588 C18.9185267,3.72001906 18.6816132,4.43456638 18.4474362,5.13049745 L17.6936914,7.28602216 L20.3751934,7.28602216 L19.6214486,5.13049745 Z M22.102786,12.1955643 L21.1813251,9.54651075 L16.8895144,9.54651075 L15.9660988,12.1955643 L13.4523128,12.1955643 L17.9442881,0.30492642 L20.2258519,0.30492642 L24.6853786,12.1955643 L22.102786,12.1955643 Z" id="Fill-16"></path>
                                <path d="M32.2719691,2.61647119 L29.2022572,2.61647119 L29.2022572,5.67270578 L32.2719691,5.67270578 C33.3611461,5.67270578 33.946784,5.16293728 33.946784,4.12716046 C33.946784,3.05890436 33.310323,2.61647119 32.2719691,2.61647119 L32.2719691,2.61647119 Z M33.6621749,12.1955247 L31.5667016,7.91457823 L29.2022572,7.91457823 L29.2022572,12.1955247 L26.8565782,12.1955247 L26.8565782,0.304886855 L32.3200556,0.304886855 C34.5351584,0.304886855 36.3616605,1.54583843 36.3616605,4.07606483 C36.3616605,5.86164096 35.6079156,6.9809928 34.1145,7.57473249 L36.3616605,12.1955247 L33.6621749,12.1955247 Z" id="Fill-18"></path>
                                <path d="M42.4043642,2.61647119 L41.1635,2.61647119 L41.1635,9.88631683 L42.3214835,9.88631683 C44.7848374,9.88631683 45.9080267,8.42434674 45.9080267,6.25020578 C45.9080267,3.82217077 44.8857016,2.61647119 42.4043642,2.61647119 M42.3214835,12.1955247 L38.817821,12.1955247 L38.817821,0.304886855 L42.4891996,0.304886855 C45.8415658,0.304886855 48.3229033,1.90192387 48.3229033,6.25020578 C48.3229033,10.4285648 45.3384177,12.1955247 42.3214835,12.1955247" id="Fill-20"></path>
                                <path d="M56.0773272,2.61647119 L53.0076152,2.61647119 L53.0076152,5.67270578 L56.0773272,5.67270578 C57.1665041,5.67270578 57.752142,5.16293728 57.752142,4.12716046 C57.752142,3.05890436 57.1156811,2.61647119 56.0773272,2.61647119 L56.0773272,2.61647119 Z M57.4675329,12.1955247 L55.3720597,7.91457823 L53.0076152,7.91457823 L53.0076152,12.1955247 L50.6619362,12.1955247 L50.6619362,0.304886855 L56.1277593,0.304886855 C58.3405165,0.304886855 60.1670185,1.54583843 60.1670185,4.07606483 C60.1670185,5.86164096 59.4132737,6.9809928 57.919858,7.57473249 L60.1670185,12.1955247 L57.4675329,12.1955247 Z" id="Fill-22"></path>
                                <path d="M67.1149585,2.47914711 C65.4722013,2.47914711 64.3830244,3.82229011 64.3830244,6.23408538 C64.3830244,8.64548455 65.5226334,10.021107 67.1653906,10.021107 C68.8081478,10.021107 69.8996705,8.68034052 69.8996705,6.26894134 C69.8996705,3.85476953 68.7577157,2.47914711 67.1149585,2.47914711 M67.133333,12.3818066 C64.0636211,12.3818066 61.9685388,10.1050782 61.9685388,6.26894134 C61.9685388,2.43042797 64.0984153,0.118843608 67.1653906,0.118843608 C70.2167281,0.118843608 72.3122013,2.39517592 72.3122013,6.23408538 C72.3122013,10.0725988 70.1846705,12.3818066 67.133333,12.3818066" id="Fill-24"></path>
                                <path d="M80.0848436,6.86240326 L76.9646996,6.86240326 L76.9646996,9.93765016 L80.0848436,9.93765016 C81.2244527,9.93765016 81.7596584,9.32529422 81.7596584,8.38933233 C81.7596584,7.37217177 81.2244527,6.86240326 80.0848436,6.86240326 M79.9491852,2.49788165 L76.9646996,2.49788165 L76.9646996,4.75559774 L80.0664691,4.75559774 C81.0407078,4.75559774 81.3921687,4.29732103 81.3921687,3.63584984 C81.3921687,2.88882303 80.9719012,2.49788165 79.9491852,2.49788165 M80.0000082,12.1953662 L74.6694527,12.1953662 L74.6694527,0.304728391 L80.0504403,0.304728391 C82.3296584,0.304728391 83.772642,1.41061314 83.772642,3.44731072 C83.772642,4.4672438 83.3038971,5.2820021 82.5317778,5.75889506 C83.4716132,6.18271188 84.174535,7.04856583 84.174535,8.35685284 C84.174535,10.8545998 82.515749,12.1953662 80.0000082,12.1953662" id="Fill-27"></path>
                                <polygon id="Fill-29" points="86.5640782 12.1954455 86.5640782 0.304807623 94.7114033 0.304807623 94.7114033 2.63263165 88.9097572 2.63263165 88.9097572 4.68834154 92.2804979 4.68834154 92.2804979 6.99754942 88.9097572 6.99754942 88.9097572 9.86762145 94.9616091 9.86762145 94.9616091 12.1954455"></polygon>
                            </g>
                            <g id="My" transform="translate(0.000000, -1.000000)">
                                <g id="Group-33" transform="translate(0.185185, 0.000000)">
                                    <g id="Fill-31-Clipped">
                                        <mask id="mask-5" fill="white">
                                            <use xlink:href="#path-4"></use>
                                        </mask>
                                        <g id="path-3"></g>
                                        <path d="M8.88895062,12.0521636 L8.88895062,7.68764198 C8.88895062,7.04280658 8.92218107,5.52974074 8.92218107,5.0710679 C8.75446502,5.51350103 8.40300412,6.36311523 8.10080247,7.04280658 L5.72072016,12.3246739 L3.34024691,7.04280658 C3.03804527,6.36311523 2.68658436,5.51350103 2.51886831,5.0710679 C2.51886831,5.52974074 2.55209877,7.04280658 2.55209877,7.68764198 L2.55209877,12.0521636 L0.254506173,12.0521636 L0.254506173,0.16152572 L2.51886831,0.16152572 L4.96580247,5.54835699 C5.26800412,6.2094321 5.61946502,7.11014198 5.77115226,7.53395884 C5.92166667,7.09390226 6.25709877,6.22567181 6.55930041,5.54835699 L8.92218107,0.16152572 L11.2358025,0.16152572 L11.2358025,12.0521636 L8.88895062,12.0521636 Z" id="Fill-31" fill="#000000" fill-rule="nonzero" mask="url(#mask-5)"></path>
                                    </g>
                                </g>
                                <path d="M20.0795926,7.34763786 L20.0795926,12.0520051 L17.7315679,12.0520051 L17.7315679,7.39873354 L13.2892428,0.161763374 L15.9887284,0.161763374 L17.6475144,2.98311626 C18.067,3.69528703 18.7046337,4.8685072 18.9227819,5.30856379 C19.1397572,4.8685072 19.7601893,3.73014301 20.1968765,2.98311626 L21.8556626,0.161763374 L24.5219177,0.161763374 L20.0795926,7.34763786 Z" id="Fill-34" fill="#000000" fill-rule="nonzero"></path>
                            </g>
                        </g>
                        <g id="Topshop" transform="translate(25.000000, 0.000000)" fill-rule="nonzero" fill="#000000">
                            <polygon id="Fill-1" points="51.8408148 0.939831783 51.8408148 6.27279477 45.5344568 6.27279477 45.5344568 0.939831783 44.4914115 0.939831783 44.4914115 12.7801661 45.5344568 12.7801661 45.5344568 7.28520213 51.8408148 7.28520213 51.8408148 12.7801661 52.8838601 12.7801661 52.8838601 0.939831783"></polygon>
                            <path d="M38.0275412,6.13206403 C35.4652778,5.53436335 35.2565123,4.71089116 35.2565123,3.77453312 C35.2565123,2.82431193 35.9172119,1.80913186 37.7718621,1.80913186 C39.051821,1.80913186 39.8223765,2.18739836 40.5855041,2.75578822 L40.7332819,2.86590146 L41.4170473,2.04678622 L41.2411214,1.92162155 C40.4431996,1.3532317 39.4763889,0.827619551 37.8219033,0.827619551 C35.6271296,0.827619551 34.2083848,2.00361235 34.2083848,3.82444058 C34.2083848,5.58347859 35.2017798,6.53290757 37.6354218,7.10129752 C40.220751,7.70691997 40.5198251,8.94905983 40.5198251,9.82956913 C40.5198251,11.7553613 38.8391461,12.0429231 37.8375412,12.0429231 C36.6869856,12.0429231 35.6935905,11.6654488 34.7130967,10.8550475 L34.5692284,10.7366164 L33.8623971,11.5097852 L34.0199486,11.644456 C35.076286,12.5471463 36.3851749,13.0248314 37.8043107,13.0248314 C40.1601543,13.0248314 41.5667798,11.8175475 41.5667798,9.79669358 C41.5667798,7.85901871 40.4416358,6.69451251 38.0275412,6.13206403" id="Fill-2"></path>
                            <polygon id="Fill-4" points="0.58905761 1.00570188 0.58905761 2.01652491 5.0896337 2.01652491 5.0896337 12.8460362 6.1322881 12.8460362 6.1322881 2.01652491 10.6352099 2.01652491 10.6352099 1.00570188"></polygon>
                            <path d="M72.4156255,0.988036217 L68.3501728,0.988036217 L68.3501728,12.8283706 L69.3963457,12.8283706 L69.3963457,8.2412461 L72.1767572,8.2412461 C74.8434033,8.2412461 76.372786,6.89176561 76.372786,4.54017617 C76.372786,2.2499807 74.9669424,0.988036217 72.4156255,0.988036217 M72.1767572,7.25735725 L69.3963457,7.25735725 L69.3963457,1.97192507 L72.3816132,1.97192507 C74.3519835,1.97192507 75.3094115,2.82312365 75.3094115,4.57384384 C75.3094115,6.37962055 74.2847407,7.25735725 72.1767572,7.25735725" id="Fill-6"></path>
                            <path d="M16.3393539,0.765235246 C13.2934897,0.765235246 11.1663498,3.27328057 11.1663498,6.86423735 C11.1663498,10.4555902 13.2934897,12.9640316 16.3393539,12.9640316 C19.386,12.9640316 21.5143128,10.4555902 21.5143128,6.86423735 C21.5143128,3.27328057 19.386,0.765235246 16.3393539,0.765235246 M16.3557737,11.950832 C13.9135309,11.950832 12.2082222,9.85868183 12.2082222,6.86423735 C12.2082222,3.86820854 13.9068848,1.77605838 16.3393539,1.77605838 C18.771823,1.77605838 20.4704856,3.86820854 20.4704856,6.86423735 C20.4704856,9.85868183 18.7780782,11.950832 16.3557737,11.950832" id="Fill-8"></path>
                            <path d="M28.1529362,1.00597914 L24.0847469,1.00597914 L24.0847469,12.8455213 L25.1320926,12.8455213 L25.1320926,8.25839681 L27.913286,8.25839681 C30.5795412,8.25839681 32.1085329,6.90891632 32.1085329,4.55653467 C32.1085329,2.26713141 30.7034712,1.00597914 28.1529362,1.00597914 M27.913286,7.27609229 L25.1320926,7.27609229 L25.1320926,1.98749145 L28.1189239,1.98749145 C30.0877305,1.98749145 31.0451584,2.8398783 31.0451584,4.59099455 C31.0451584,6.39756348 30.0204877,7.27609229 27.913286,7.27609229" id="Fill-10"></path>
                            <path d="M60.6217078,0.758739348 C57.5750617,0.758739348 55.446749,3.26757688 55.446749,6.85972194 C55.446749,10.4506787 57.5750617,12.9579318 60.6217078,12.9579318 C63.667572,12.9579318 65.7947119,10.4506787 65.7947119,6.85972194 C65.7947119,3.26757688 63.667572,0.758739348 60.6217078,0.758739348 M60.6369547,11.9471087 C58.1951029,11.9471087 56.4905761,9.85535459 56.4905761,6.85972194 C56.4905761,3.86448525 58.1892387,1.77193903 60.6217078,1.77193903 C63.054177,1.77193903 64.7528395,3.86448525 64.7528395,6.85972194 C64.7528395,9.85535459 63.0596502,11.9471087 60.6369547,11.9471087" id="Fill-12"></path>
                        </g>
                    </g>
                </g>
            </g>
        </g>
    </g>
</svg>