<?xml version="1.0" encoding="UTF-8" standalone="no"?>
<svg width="256px" height="85px" viewBox="0 0 256 85" version="1.1" xmlns="http://www.w3.org/2000/svg" xmlns:xlink="http://www.w3.org/1999/xlink">
    <!-- Generator: Sketch 3.8.3 (29802) - http://www.bohemiancoding.com/sketch -->
    <title>Group 5</title>
    <desc>Created with Sketch.</desc>
    <defs></defs>
    <g id="Page-1" stroke="none" stroke-width="1" fill="none" fill-rule="evenodd">
        <g id="Logo" fill="#222222">
            <g id="Group-5">
                <polygon id="Path" points="224.2 45.52 232.312 45.52 248.224 73.496 248.328 73.496 248.328 45.52 255.452 45.52 255.452 84 247.496 84 231.428 56.024 231.324 56.024 231.324 84 224.2 84"></polygon>
                <polygon id="Path" points="207.844 45.52 214.968 45.52 214.968 84 207.844 84"></polygon>
                <g id="Group-2" transform="translate(160.000000, 44.000000)">
                    <path d="M0.235999905,20.864 C0.235999905,18.0213191 0.773327865,15.3693456 1.8479999,12.908 C2.92267194,10.4466544 4.37865738,8.31467568 6.2159999,6.512 C8.05334242,4.70932432 10.1853211,3.29667178 12.6119999,2.274 C15.0386787,1.25132822 17.6213195,0.74 20.3599999,0.74 C23.0986803,0.74 25.6813211,1.25132822 28.1079999,2.274 C30.5346787,3.29667178 32.6666574,4.70932432 34.5039999,6.512 C36.3413424,8.31467568 37.7973279,10.4466544 38.8719999,12.908 C39.9466719,15.3693456 40.4839999,18.0213191 40.4839999,20.864 C40.4839999,23.6373472 39.9553385,26.2286546 38.8979999,28.638 C37.8406613,31.0473454 36.402009,33.1533243 34.5819999,34.956 C32.7619908,36.7586757 30.6300121,38.1799948 28.1859999,39.22 C25.7419877,40.2600052 23.1333471,40.78 20.3599999,40.78 C17.5866527,40.78 14.9780121,40.2600052 12.5339999,39.22 C10.0899877,38.1799948 7.958009,36.7586757 6.1379999,34.956 C4.3179908,33.1533243 2.87933852,31.0473454 1.8219999,28.638 C0.764661285,26.2286546 0.235999905,23.6373472 0.235999905,20.864 Z M7.3599999,20.812 C7.3599999,22.5800088 7.68932994,24.2699919 8.3479999,25.882 C9.00666986,27.4940081 9.92532734,28.9153272 11.1039999,30.146 C12.2826725,31.3766728 13.6606587,32.3473298 15.2379999,33.058 C16.8153411,33.7686702 18.5226574,34.124 20.3599999,34.124 C22.1973424,34.124 23.9046587,33.7686702 25.4819999,33.058 C27.0593411,32.3473298 28.4373273,31.3766728 29.6159999,30.146 C30.7946725,28.9153272 31.7133299,27.4940081 32.3719999,25.882 C33.0306699,24.2699919 33.3599999,22.5800088 33.3599999,20.812 C33.3599999,18.9746575 33.0220033,17.2413415 32.3459999,15.612 C31.6699965,13.9826585 30.7426725,12.5613394 29.5639999,11.348 C28.3853273,10.1346606 27.0073411,9.17267022 25.4299999,8.462 C23.8526587,7.75132978 22.1626756,7.396 20.3599999,7.396 C18.5573242,7.396 16.8673411,7.75132978 15.2899999,8.462 C13.7126587,9.17267022 12.3346725,10.1346606 11.1559999,11.348 C9.97732734,12.5613394 9.05000328,13.9826585 8.3739999,15.612 C7.69799652,17.2413415 7.3599999,18.9746575 7.3599999,20.812 Z" id="Combined-Shape"></path>
                </g>
                <polygon id="Path" points="137.484 45.52 144.608 45.52 144.608 77.344 156.36 77.344 156.36 84 137.484 84"></polygon>
                <path d="M105.528,64.396 L130.644,64.396 L130.644,65.228 C130.644,67.9666804 130.089339,70.5233215 128.98,72.898 C127.870661,75.2726785 126.380009,77.3439912 124.508,79.112 C122.635991,80.8800088 120.469346,82.2666616 118.008,83.272 C115.546654,84.2773384 112.964013,84.78 110.26,84.78 C107.486653,84.78 104.852012,84.2773384 102.356,83.272 C99.8599875,82.2666616 97.6673427,80.8713423 95.778,79.086 C93.8886572,77.3006577 92.3806723,75.1860122 91.254,72.742 C90.1273277,70.2979878 89.564,67.6373477 89.564,64.76 C89.564,61.9173191 90.1186611,59.2826788 91.228,56.856 C92.3373388,54.4293212 93.8366572,52.3146757 95.726,50.512 C97.6153427,48.7093243 99.7993209,47.2966718 102.278,46.274 C104.756679,45.2513282 107.347986,44.74 110.052,44.74 C112.478679,44.74 114.723323,45.1126629 116.786,45.858 C118.848677,46.6033371 120.677325,47.5566609 122.272,48.718 C123.866675,49.8793391 125.218661,51.1706596 126.328,52.592 C127.437339,54.0133404 128.234664,55.4173264 128.72,56.804 L120.192,56.804 C119.775998,56.1799969 119.247336,55.5473365 118.606,54.906 C117.964663,54.2646635 117.210671,53.6840026 116.344,53.164 C115.477329,52.6439974 114.506672,52.219335 113.432,51.89 C112.357328,51.560665 111.178673,51.396 109.896,51.396 C107.711989,51.396 105.796675,51.8119958 104.15,52.644 C102.503325,53.4760042 101.125339,54.5419935 100.016,55.842 C98.9066611,57.1420065 98.0746694,58.5893254 97.52,60.184 C96.9653305,61.7786746 96.688,63.3213259 96.688,64.812 C96.688,66.2680073 96.9653305,67.7846588 97.52,69.362 C98.0746694,70.9393412 98.9153277,72.3779935 100.042,73.678 C101.168672,74.9780065 102.581325,76.0439958 104.28,76.876 C105.978675,77.7080042 107.971989,78.124 110.26,78.124 C112.617345,78.124 114.827323,77.5086728 116.89,76.278 C118.952677,75.0473272 120.538661,73.3053446 121.648,71.052 L105.528,71.052 L105.528,64.396 Z" id="Path"></path>
                <path d="M85.324,73.288 C84.5613295,75.0560088 83.5560062,76.6506596 82.308,78.072 C81.0599937,79.4933404 79.6473412,80.6979951 78.07,81.686 C76.4926588,82.6740049 74.8026757,83.436664 73,83.974 C71.1973243,84.511336 69.3773425,84.78 67.54,84.78 C64.7666528,84.78 62.1580122,84.242672 59.714,83.168 C57.2699878,82.093328 55.1380091,80.6286759 53.318,78.774 C51.4979909,76.9193241 50.0680052,74.7700122 49.028,72.326 C47.9879948,69.8819878 47.468,67.3080135 47.468,64.604 C47.468,61.9693202 47.9793282,59.4473454 49.002,57.038 C50.0246718,54.6286546 51.4373243,52.5140091 53.24,50.694 C55.0426757,48.8739909 57.1573212,47.426672 59.584,46.352 C62.0106788,45.277328 64.6106528,44.74 67.384,44.74 C68.9786746,44.74 70.6513246,44.9566645 72.402,45.39 C74.1526754,45.8233355 75.8426585,46.5079953 77.472,47.444 C79.1013415,48.3800047 80.617993,49.5933259 82.022,51.084 C83.426007,52.5746741 84.5959953,54.3773228 85.532,56.492 L77.42,56.492 C76.0333264,54.8973254 74.5080083,53.6493378 72.844,52.748 C71.1799917,51.8466622 69.2733441,51.396 67.124,51.396 C65.5639922,51.396 64.0300075,51.72533 62.522,52.384 C61.0139924,53.04267 59.6793391,53.969994 58.518,55.166 C57.3566608,56.362006 56.4120036,57.7746585 55.684,59.404 C54.9559963,61.0333415 54.592,62.8013238 54.592,64.708 C54.592,66.5106757 54.9386632,68.2266585 55.632,69.856 C56.3253368,71.4853415 57.2613274,72.9066606 58.44,74.12 C59.6186725,75.3333394 60.9793256,76.3039964 62.522,77.032 C64.0646744,77.7600036 65.6853248,78.124 67.384,78.124 C68.6666731,78.124 69.8106616,77.959335 70.816,77.63 C71.8213383,77.300665 72.7139961,76.8846692 73.494,76.382 C74.2740039,75.8793308 74.9586637,75.3506694 75.548,74.796 C76.1373363,74.2413306 76.6399979,73.7386689 77.056,73.288 L85.324,73.288 Z" id="Path"></path>
                <polygon id="Path" points="0.276 45.52 10.156 45.52 20.4 74.64 20.504 74.64 30.644 45.52 40.524 45.52 40.524 84 33.4 84 33.4 55.14 33.244 55.14 23.416 84 17.384 84 7.504 55.14 7.4 55.14 7.4 84 0.276 84"></polygon>
                <path d="M255.505994,29.288 C254.743323,31.0560088 253.738,32.6506596 252.489994,34.072 C251.241988,35.4933404 249.829335,36.6979951 248.251994,37.686 C246.674653,38.6740049 244.98467,39.436664 243.181994,39.974 C241.379318,40.511336 239.559336,40.78 237.721994,40.78 C234.948647,40.78 232.340006,40.242672 229.895994,39.168 C227.451982,38.093328 225.320003,36.6286759 223.499994,34.774 C221.679985,32.9193241 220.249999,30.7700122 219.209994,28.326 C218.169989,25.8819878 217.649994,23.3080135 217.649994,20.604 C217.649994,17.9693202 218.161322,15.4473454 219.183994,13.038 C220.206666,10.6286546 221.619318,8.5140091 223.421994,6.694 C225.22467,4.8739909 227.339315,3.42667204 229.765994,2.352 C232.192673,1.27732796 234.792647,0.74 237.565994,0.74 C239.160669,0.74 240.833318,0.9566645 242.583994,1.39 C244.334669,1.8233355 246.024652,2.50799532 247.653994,3.444 C249.283335,4.38000468 250.799987,5.59332588 252.203994,7.084 C253.608001,8.57467412 254.777989,10.3773228 255.713994,12.492 L247.601994,12.492 C246.21532,10.8973254 244.690002,9.64933784 243.025994,8.748 C241.361986,7.84666216 239.455338,7.396 237.305994,7.396 C235.745986,7.396 234.212001,7.72533004 232.703994,8.384 C231.195986,9.04266996 229.861333,9.96999402 228.699994,11.166 C227.538655,12.362006 226.593998,13.7746585 225.865994,15.404 C225.13799,17.0333415 224.773994,18.8013238 224.773994,20.708 C224.773994,22.5106757 225.120657,24.2266585 225.813994,25.856 C226.507331,27.4853415 227.443321,28.9066606 228.621994,30.12 C229.800666,31.3333394 231.16132,32.3039964 232.703994,33.032 C234.246668,33.7600036 235.867319,34.124 237.565994,34.124 C238.848667,34.124 239.992656,33.959335 240.997994,33.63 C242.003332,33.300665 242.89599,32.8846692 243.675994,32.382 C244.455998,31.8793308 245.140658,31.3506694 245.729994,30.796 C246.31933,30.2413306 246.821992,29.7386689 247.237994,29.288 L255.505994,29.288 Z" id="Path"></path>
                <g id="Group" transform="translate(178.000000, 1.000000)">
                    <path d="M16.18,0.52 L21.744,0.52 L37.864,39 L30.012,39 L25.904,29.068 L12.124,29.068 L8.016,39 L0.164,39 L16.18,0.52 Z M14.516,22.36 L23.356,22.36 L18.988,10.556 L18.884,10.556 L14.516,22.36 Z" id="Combined-Shape"></path>
                </g>
                <polygon id="Path" points="130 1.52 139.88 1.52 150.124 30.64 150.228 30.64 160.368 1.52 170.248 1.52 170.248 40 163.124 40 163.124 11.14 162.968 11.14 153.14 40 147.108 40 137.228 11.14 137.124 11.14 137.124 40 130 40"></polygon>
                <g id="Group-3" transform="translate(93.000000, 1.000000)">
                    <path d="M0.368,0.52 L12.172,0.52 C14.3906778,0.52 16.2279927,0.72799792 17.684,1.144 C19.1400073,1.56000208 20.4226611,2.21866216 21.532,3.12 C22.0866694,3.57066892 22.632664,4.0993303 23.17,4.706 C23.707336,5.3126697 24.1926645,6.0059961 24.626,6.786 C25.0593355,7.5660039 25.4059987,8.42399532 25.666,9.36 C25.9260013,10.2960047 26.056,11.3186611 26.056,12.428 C26.056,13.0520031 25.9953339,13.7626627 25.874,14.56 C25.7526661,15.3573373 25.5446681,16.1719958 25.25,17.004 C24.9553319,17.8360042 24.5740023,18.6506627 24.106,19.448 C23.6379977,20.2453373 23.0573368,20.97333 22.364,21.632 C21.2199943,22.7413389 20.110672,23.4866648 19.036,23.868 C17.961328,24.2493352 16.9386715,24.5613321 15.968,24.804 L26.42,39 L17.788,39 L7.596,24.284 L7.492,24.284 L7.492,39 L0.368,39 L0.368,0.52 Z M7.492,18.928 L12.068,18.928 C13.5240073,18.928 14.7026622,18.7113355 15.604,18.278 C16.5053378,17.8446645 17.2073308,17.3246697 17.71,16.718 C18.2126692,16.1113303 18.5419992,15.4700034 18.698,14.794 C18.8540008,14.1179966 18.932,13.5200026 18.932,13 C18.932,12.4799974 18.8366676,11.8820034 18.646,11.206 C18.4553324,10.5299966 18.1000026,9.8886697 17.58,9.282 C17.0599974,8.6753303 16.3580044,8.17266866 15.474,7.774 C14.5899956,7.37533134 13.4546736,7.176 12.068,7.176 L7.492,7.176 L7.492,18.928 Z" id="Combined-Shape"></path>
                </g>
                <g id="Group-4" transform="translate(45.000000, 0.000000)">
                    <path d="M0.676,20.864 C0.676,18.0213191 1.21332796,15.3693456 2.288,12.908 C3.36267204,10.4466544 4.81865748,8.31467568 6.656,6.512 C8.49334252,4.70932432 10.6253212,3.29667178 13.052,2.274 C15.4786788,1.25132822 18.0613196,0.74 20.8,0.74 C23.5386804,0.74 26.1213212,1.25132822 28.548,2.274 C30.9746788,3.29667178 33.1066575,4.70932432 34.944,6.512 C36.7813425,8.31467568 38.237328,10.4466544 39.312,12.908 C40.386672,15.3693456 40.924,18.0213191 40.924,20.864 C40.924,23.6373472 40.3953386,26.2286546 39.338,28.638 C38.2806614,31.0473454 36.8420091,33.1533243 35.022,34.956 C33.2019909,36.7586757 31.0700122,38.1799948 28.626,39.22 C26.1819878,40.2600052 23.5733472,40.78 20.8,40.78 C18.0266528,40.78 15.4180122,40.2600052 12.974,39.22 C10.5299878,38.1799948 8.3980091,36.7586757 6.578,34.956 C4.7579909,33.1533243 3.31933862,31.0473454 2.262,28.638 C1.20466138,26.2286546 0.676,23.6373472 0.676,20.864 Z M7.8,20.812 C7.8,22.5800088 8.12933004,24.2699919 8.788,25.882 C9.44666996,27.4940081 10.3653274,28.9153272 11.544,30.146 C12.7226726,31.3766728 14.1006588,32.3473298 15.678,33.058 C17.2553412,33.7686702 18.9626575,34.124 20.8,34.124 C22.6373425,34.124 24.3446588,33.7686702 25.922,33.058 C27.4993412,32.3473298 28.8773274,31.3766728 30.056,30.146 C31.2346726,28.9153272 32.15333,27.4940081 32.812,25.882 C33.47067,24.2699919 33.8,22.5800088 33.8,20.812 C33.8,18.9746575 33.4620034,17.2413415 32.786,15.612 C32.1099966,13.9826585 31.1826726,12.5613394 30.004,11.348 C28.8253274,10.1346606 27.4473412,9.17267022 25.87,8.462 C24.2926588,7.75132978 22.6026757,7.396 20.8,7.396 C18.9973243,7.396 17.3073412,7.75132978 15.73,8.462 C14.1526588,9.17267022 12.7746726,10.1346606 11.596,11.348 C10.4173274,12.5613394 9.49000338,13.9826585 8.814,15.612 C8.13799662,17.2413415 7.8,18.9746575 7.8,20.812 Z" id="Combined-Shape"></path>
                </g>
                <path d="M38.126,29.288 C37.3633295,31.0560088 36.3580063,32.6506596 35.11,34.072 C33.8619938,35.4933404 32.4493412,36.6979951 30.872,37.686 C29.2946588,38.6740049 27.6046757,39.436664 25.802,39.974 C23.9993243,40.511336 22.1793425,40.78 20.342,40.78 C17.5686528,40.78 14.9600122,40.242672 12.516,39.168 C10.0719878,38.093328 7.94000911,36.6286759 6.12000001,34.774 C4.29999091,32.9193241 2.87000521,30.7700122 1.83000001,28.326 C0.789994811,25.8819878 0.270000011,23.3080135 0.270000011,20.604 C0.270000011,17.9693202 0.781328231,15.4473454 1.80400001,13.038 C2.82667179,10.6286546 4.23932433,8.5140091 6.04200001,6.694 C7.84467569,4.8739909 9.95932121,3.42667204 12.386,2.352 C14.8126788,1.27732796 17.4126528,0.74 20.186,0.74 C21.7806747,0.74 23.4533246,0.9566645 25.204,1.39 C26.9546754,1.8233355 28.6446585,2.50799532 30.274,3.444 C31.9033415,4.38000468 33.419993,5.59332588 34.824,7.084 C36.228007,8.57467412 37.3979953,10.3773228 38.334,12.492 L30.222,12.492 C28.8353264,10.8973254 27.3100083,9.64933784 25.646,8.748 C23.9819917,7.84666216 22.0753441,7.396 19.926,7.396 C18.3659922,7.396 16.8320076,7.72533004 15.324,8.384 C13.8159925,9.04266996 12.4813392,9.96999402 11.32,11.166 C10.1586609,12.362006 9.21400365,13.7746585 8.48600001,15.404 C7.75799637,17.0333415 7.39400001,18.8013238 7.39400001,20.708 C7.39400001,22.5106757 7.74066321,24.2266585 8.43400001,25.856 C9.12733681,27.4853415 10.0633275,28.9066606 11.242,30.12 C12.4206726,31.3333394 13.7813256,32.3039964 15.324,33.032 C16.8666744,33.7600036 18.4873249,34.124 20.186,34.124 C21.4686731,34.124 22.6126617,33.959335 23.618,33.63 C24.6233384,33.300665 25.5159961,32.8846692 26.296,32.382 C27.0760039,31.8793308 27.7606637,31.3506694 28.35,30.796 C28.9393363,30.2413306 29.4419979,29.7386689 29.858,29.288 L38.126,29.288 Z" id="Path"></path>
            </g>
        </g>
    </g>
</svg>