<?xml version="1.0" encoding="UTF-8"?>
<svg width="40px" height="40px" viewBox="0 0 40 40" version="1.1" xmlns="http://www.w3.org/2000/svg" xmlns:xlink="http://www.w3.org/1999/xlink">
    <!-- Generator: Sketch 42 (36781) - http://www.bohemiancoding.com/sketch -->
    <title>Facebook_Icon</title>
    <desc>Created with Sketch.</desc>
    <defs></defs>
    <g id="0.3---Footers" stroke="none" stroke-width="1" fill="none" fill-rule="evenodd">
        <g id="Footer---UK--Single-Line-Sign-Up---Hover-Error-Success" transform="translate(-281.000000, -366.000000)" fill-rule="nonzero">
            <g id="Content" transform="translate(100.000000, 30.000000)">
                <g id="Follow-Us" transform="translate(23.000000, 336.000000)">
                    <g id="Social-Icons" transform="translate(108.000000, 0.000000)">
                        <g id="Facebook_Icon" transform="translate(50.000000, 0.000000)">
                            <path d="M20,1.35672515 C30.3391813,1.35672515 38.7602339,9.77777778 38.7602339,20.1169591 C38.7602339,30.4561404 30.3391813,38.877193 20,38.877193 C9.66081871,38.877193 1.23976608,30.4561404 1.23976608,20.1169591 C1.23976608,9.75438596 9.66081871,1.35672515 20,1.35672515 L20,1.35672515 Z M20,0.210526316 C9.00584795,0.210526316 0.116959064,9.12280702 0.116959064,20.0935673 C0.116959064,31.0643275 9.02923977,39.9766082 20,39.9766082 C30.9707602,39.9766082 39.8830409,31.0643275 39.8830409,20.0935673 C39.8830409,9.12280702 30.994152,0.210526316 20,0.210526316 L20,0.210526316 Z" id="Shape" fill="#C8C8C8"></path>
                            <path d="M24,20.6315789 L21.005848,20.6315789 L21.005848,28.6081871 L17.9649123,28.6081871 L17.9649123,20.6315789 L15.8596491,20.6315789 L15.8596491,17.754386 L17.9649123,17.754386 L17.9649123,15.2982456 C17.9649123,13.380117 19.2046784,11.6023392 22.0818713,11.6023392 C23.251462,11.6023392 24.0935673,11.7192982 24.0935673,11.7192982 L24.0233918,14.4093567 L22.1988304,14.4093567 C21.1695906,14.4093567 21.005848,14.877193 21.005848,15.6725146 L21.005848,15.8128655 L21.005848,17.7777778 L24.1169591,17.7777778 L24,20.6315789 Z" id="Shape" fill="#232323"></path>
                        </g>
                    </g>
                </g>
            </g>
        </g>
    </g>
</svg>