<?xml version="1.0" encoding="UTF-8"?>
<svg width="14px" height="14px" viewBox="0 0 14 14" version="1.1" xmlns="http://www.w3.org/2000/svg" xmlns:xlink="http://www.w3.org/1999/xlink">
    <!-- Generator: Sketch 42 (36781) - http://www.bohemiancoding.com/sketch -->
    <title>icon/close</title>
    <desc>Created with Sketch.</desc>
    <defs></defs>
    <g id="0.2---Headers" stroke="none" stroke-width="1" fill="none" fill-rule="evenodd">
        <g id="Header---Platform---Experimental-V2---Scroll---Search-Expanded" transform="translate(-1396.000000, -21.000000)" fill="#D8D8D8">
            <g id="Header" transform="translate(30.000000, 9.000000)">
                <g id="Top-Header">
                    <g id="Right-Functions" transform="translate(1095.000000, 0.000000)">
                        <g id="Search-Clicked">
                            <g id="icon/close" transform="translate(271.000000, 12.000000)">
                                <path d="M13.7435236,0.256804475 C13.4018468,-0.0848723477 12.8479891,-0.0848723477 12.5063123,0.256804475 L6.99967189,5.76256992 L1.49346895,0.256366989 C1.15179213,-0.0853098341 0.59793444,-0.0853098341 0.256257617,0.256366989 C-0.0854192056,0.598043811 -0.0854192056,1.1519015 0.256257617,1.49357833 L5.76289803,7.00021874 L0.256257617,12.5059842 C-0.0854192056,12.8472235 -0.0854192056,13.4015187 0.256257617,13.7431955 C0.426877285,13.9142527 0.650870285,13.9995625 0.874863286,13.9995625 C1.09885629,13.9995625 1.3224118,13.9142527 1.49346895,13.7431955 L7.00010937,8.23743008 L12.5063123,13.743633 C12.676932,13.9146902 12.900925,14 13.124918,14 C13.348911,14 13.5724665,13.9146902 13.7435236,13.743633 C14.0852005,13.4019562 14.0852005,12.8480985 13.7435236,12.5064217 L8.23688322,6.99978126 L13.7435236,1.4944533 C14.0852005,1.15233899 14.0852005,0.598481297 13.7435236,0.256804475" id="Page-1"></path>
                            </g>
                        </g>
                    </g>
                </g>
            </g>
        </g>
    </g>
</svg>