<?xml version="1.0" encoding="UTF-8"?>
<svg width="12px" height="12px" viewBox="0 0 12 12" version="1.1" xmlns="http://www.w3.org/2000/svg" xmlns:xlink="http://www.w3.org/1999/xlink">
    <!-- Generator: Sketch 44.1 (41455) - http://www.bohemiancoding.com/sketch -->
    <title>Shape</title>
    <desc>Created with Sketch.</desc>
    <defs></defs>
    <g id="8.1---PLP---Experimental" stroke="none" stroke-width="1" fill="none" fill-rule="evenodd">
        <g id="PLP---Experimental---Horizontal-Filters--V2---Full-Bleed-Grid-5-Per-Row---Colour-Swatches-Exposed" transform="translate(-624.000000, -577.000000)" fill="#232323">
            <g id="Product-Grids" transform="translate(0.000000, 235.000000)">
                <g id="Product-Grid---3">
                    <g id="Model-View">
                        <g id="Products">
                            <g id="Row-1">
                                <g id="Product" transform="translate(560.000015, 0.000000)">
                                    <g id="Image-Hover" transform="translate(0.000000, 316.000000)">
                                        <g id="Quick-view---Wishlist" transform="translate(58.000000, 26.000000)">
                                            <g id="Quick-View">
                                                <g id="Search-Icon" transform="translate(5.999985, 0.000000)">
                                                    <path d="M8.93185027,8.27967201 C9.60513369,7.40801711 10.0106952,6.31070802 10.0106952,5.11657754 C10.0106952,2.29511301 7.76521925,0 5.00534759,0 C2.24547594,0 0,2.29511301 0,5.11657754 C0,7.93804207 2.24547594,10.2331551 5.00534759,10.2331551 C6.04209626,10.2331551 7.00620321,9.90910517 7.80603209,9.35520285 L9.97963636,11.5771094 C10.1297968,11.7308692 10.3269305,11.8074866 10.5240642,11.8074866 C10.7211979,11.8074866 10.9183316,11.7306068 11.068492,11.5768471 C11.3693262,11.26959 11.3693262,10.7710517 11.068492,10.4637947 L8.93185027,8.27967201 L8.93185027,8.27967201 Z M1.02673797,5.11657754 C1.02673797,2.87394225 2.81146524,1.04955437 5.00534759,1.04955437 C7.19922995,1.04955437 8.98395722,2.87394225 8.98395722,5.11657754 C8.98395722,6.23409055 8.54040642,7.24743529 7.82425668,7.98343529 C7.7693262,8.01649626 7.71670588,8.0545426 7.66947594,8.10255971 C7.6386738,8.13404635 7.61326203,8.16841925 7.58887701,8.20357932 C6.89300535,8.81284563 5.99127273,9.18360071 5.00534759,9.18360071 C2.81146524,9.18360071 1.02673797,7.35895045 1.02673797,5.11657754 L1.02673797,5.11657754 Z" id="Shape"></path>
                                                </g>
                                            </g>
                                        </g>
                                    </g>
                                </g>
                            </g>
                        </g>
                    </g>
                </g>
            </g>
        </g>
    </g>
</svg>