<?xml version="1.0" encoding="UTF-8"?>
<svg width="14px" height="18px" viewBox="0 0 14 18" version="1.1" xmlns="http://www.w3.org/2000/svg" xmlns:xlink="http://www.w3.org/1999/xlink">
    <!-- Generator: Sketch 44.1 (41455) - http://www.bohemiancoding.com/sketch -->
    <title>store-icon</title>
    <desc>Created with Sketch.</desc>
    <defs></defs>
    <g id="7.1---PDP---Experimental" stroke="none" stroke-width="1" fill="none" fill-rule="evenodd">
        <g id="PDP-Experiment---Gallery-Top---How-You-Wear-It-Content-Module" transform="translate(-660.000000, -1882.000000)" fill="#232323">
            <g id="Value-Proposition" transform="translate(0.000000, 1820.000000)">
                <g id="Content" transform="translate(238.000000, 62.000000)">
                    <g id="Free-Store-Delivery-eSpot" transform="translate(275.000000, 0.000000)">
                        <g id="Content">
                            <g id="Title---Icon">
                                <g id="store-icon" transform="translate(147.000000, 0.000000)">
                                    <path d="M6.96510995,9.21558447 C5.75041678,9.21558447 4.76574723,8.23091492 4.76574723,7.0164223 C4.76574723,5.80172913 5.75041678,4.81705958 6.96510995,4.81705958 C8.17960258,4.81705958 9.16447267,5.80172913 9.16447267,7.0164223 C9.16447267,8.23091492 8.17960258,9.21558447 6.96510995,9.21558447 M6.96510995,0 C2.97709801,0 -0.0501090874,3.08556531 0.000628467712,7.03427069 C0.0339187213,9.61165827 1.45116102,11.3379384 3.07837257,13.3423727 C4.94322841,15.640804 6.96510995,18 6.96510995,18 C6.96510995,18 8.98679095,15.6602567 10.8514462,13.3618254 C12.2720978,11.6130844 13.9416241,9.73920406 13.9416241,6.95244886 C13.9416241,3.39380097 11.0684345,0 6.96510995,0" id="Fill-1"></path>
                                </g>
                            </g>
                        </g>
                    </g>
                </g>
            </g>
        </g>
    </g>
</svg>