<?xml version="1.0" encoding="UTF-8"?>
<svg width="109px" height="31px" viewBox="0 0 109 31" version="1.1" xmlns="http://www.w3.org/2000/svg" xmlns:xlink="http://www.w3.org/1999/xlink">
    <!-- Generator: Sketch 42 (36781) - http://www.bohemiancoding.com/sketch -->
    <title>Topman</title>
    <desc>Created with Sketch.</desc>
    <defs></defs>
    <g id="0.3---Footers" stroke="none" stroke-width="1" fill="none" fill-rule="evenodd">
        <g id="Footer---UK--Single-Line-Sign-Up---Hover-Error-Success" transform="translate(-1002.000000, -371.000000)" fill="#232323">
            <g id="Content" transform="translate(100.000000, 30.000000)">
                <g id="Topman" transform="translate(902.000000, 340.000000)">
                    <g id="TOPMAN-Logo" transform="translate(0.000000, 15.000000)">
                        <path d="M66.83,1.31 L70.08,1.31 L70.08,16.1 L67.23,16.1 L67.23,5.69 L62.13,13.25 L57.03,5.69 L57.03,16.1 L54.18,16.1 L54.18,1.31 L57.43,1.31 L62.14,8.32 L66.83,1.31 Z M108.18,16.1 L105.11,16.1 L96.35,5.36 L96.35,16.1 L93.54,16.1 L93.54,1.31 L96.61,1.31 L105.37,12 L105.37,1.31 L108.18,1.31 L108.18,16.1 Z M49.86,6.11 C49.86,10.34 46.32,10.9 44.21,10.9 L39.64,10.9 L39.64,16.1 L36.78,16.1 L36.78,1.31 L44.36,1.31 C46.91,1.31 49.86,2.61 49.86,6.11 Z M46.86,6.11 C46.86,4.76 45.86,3.96 44.25,3.96 L39.64,3.96 L39.64,8.25 L44.42,8.25 C46.05,8.25 46.86,7.51 46.86,6.11 Z M81.82,4.59 L84.04,10.16 L79.61,10.16 L81.82,4.59 Z M86.4,16.1 L89.6,16.1 L83.29,1.31 L80.35,1.31 L74.05,16.1 L77.24,16.1 L78.55,12.81 L85.09,12.81 L86.4,16.1 Z M14.98,3.96 L8.91,3.96 L8.91,16.1 L6.06,16.1 L6.06,3.96 L0,3.96 L0,1.31 L14.98,1.31 L14.98,3.96 L14.98,3.96 Z M24.55,16.42 C20.3310633,16.2406335 17.0386327,12.7056165 17.159147,8.48458874 C17.2796613,4.26356099 20.7684203,0.922153321 24.9907182,0.983791981 C29.2130161,1.04543064 32.602751,4.48725309 32.6,8.71 C32.5027422,13.0605215 28.9006682,16.5104583 24.55,16.42 L24.55,16.42 Z M24.875,3.88969349 C23.6239711,3.8341677 22.4030613,4.28343668 21.4864181,5.13661996 C20.5697749,5.98980324 20.0342168,7.17540051 20,8.42719349 C20,11.1195816 22.1826118,13.3021935 24.875,13.3021935 C27.5673882,13.3021935 29.75,11.1195816 29.75,8.42719349 C29.7157832,7.17540051 29.1802251,5.98980324 28.2635819,5.13661996 C27.3469387,4.28343668 26.1260289,3.8341677 24.875,3.88969349 L24.875,3.88969349 Z" id="TOPMAN"></path>
                    </g>
                    <text id="SHOP-FOR-GUYS-AT" font-family="Interstate-Regular, Interstate" font-size="11" font-weight="normal" letter-spacing="0.300000012">
                        <tspan x="1" y="10">SHOP FOR GUYS AT</tspan>
                    </text>
                </g>
            </g>
        </g>
    </g>
</svg>